<?xml version="1.0" encoding="UTF-8"?>
<!DOCTYPE svg PUBLIC "-//W3C//DTD SVG 1.1//EN" "http://www.w3.org/Graphics/SVG/1.1/DTD/svg11.dtd">
<svg xmlns="http://www.w3.org/2000/svg" version="1.1" width="512px" height="512px" style="shape-rendering:geometricPrecision; text-rendering:geometricPrecision; image-rendering:optimizeQuality; fill-rule:evenodd; clip-rule:evenodd" xmlns:xlink="http://www.w3.org/1999/xlink">
<g><path style="opacity:0.974" fill="#010100" d="M 97.5,-0.5 C 102.167,-0.5 106.833,-0.5 111.5,-0.5C 116.344,1.82874 120.511,5.16207 124,9.5C 149.937,52.4314 176.27,95.098 203,137.5C 210.82,132.285 219.154,131.285 228,134.5C 237.961,125.105 249.294,123.105 262,128.5C 271,124.5 280,124.5 289,128.5C 306.408,114.481 322.241,116.148 336.5,133.5C 347.371,131.181 356.538,134.181 364,142.5C 382.287,136.226 395.453,141.893 403.5,159.5C 412.678,161.029 419.678,165.696 424.5,173.5C 439.281,173.213 449.948,179.546 456.5,192.5C 468,196.165 475.167,203.832 478,215.5C 490.92,220.328 497.754,229.662 498.5,243.5C 502.433,243.411 505.266,245.078 507,248.5C 506.595,332.485 472.095,398.319 403.5,446C 394.995,451.087 386.328,455.92 377.5,460.5C 376.921,473.208 376.088,485.875 375,498.5C 371.838,504.836 367.004,509.169 360.5,511.5C 303.833,511.5 247.167,511.5 190.5,511.5C 183.031,508.863 178.031,503.696 175.5,496C 174.863,484.185 174.196,472.352 173.5,460.5C 102.507,423.564 60.0071,365.564 46,286.5C 44.0053,273.895 43.3387,261.229 44,248.5C 46.5071,245.241 49.8405,243.241 54,242.5C 55.9794,228.688 63.8127,220.688 77.5,218.5C 80.7251,205.108 89.0585,196.941 102.5,194C 71,161.833 39.5,129.667 8,97.5C 0.336557,84.0766 2.50322,72.5766 14.5,63C 25.0181,58.6286 34.6848,59.9619 43.5,67C 76.295,104.797 109.462,142.297 143,179.5C 148.03,171.57 155.197,167.07 164.5,166C 165.916,163.165 167.583,160.498 169.5,158C 140.543,115.92 111.71,73.7534 83,31.5C 78.7189,16.4544 83.5522,5.78778 97.5,-0.5 Z"/></g>
<g><path style="opacity:1" fill="#6b543b" d="M 101.5,14.5 C 105.426,14.0466 108.592,15.3799 111,18.5C 137.5,61.5 164,104.5 190.5,147.5C 187.188,149.816 184.022,149.816 181,147.5C 154.391,107.892 127.391,68.5586 100,29.5C 94.9817,23.8011 95.4817,18.8011 101.5,14.5 Z"/></g>
<g><path style="opacity:1" fill="#6b533b" d="M 23.5,75.5 C 25.5273,75.3379 27.5273,75.5045 29.5,76C 62.018,111.55 94.1847,147.384 126,183.5C 126.688,184.332 126.521,184.998 125.5,185.5C 123.271,186.963 120.937,187.797 118.5,188C 85.6667,154.5 52.8333,121 20,87.5C 17.4576,82.3612 18.6243,78.3612 23.5,75.5 Z"/></g>
<g><path style="opacity:1" fill="#fae89e" d="M 354.5,157.5 C 346.897,156.105 340.397,158.105 335,163.5C 328.017,150.95 318.017,147.617 305,153.5C 303.701,149.569 301.868,145.903 299.5,142.5C 303.251,134.584 309.251,132.417 317.5,136C 321.666,139.165 324.166,143.332 325,148.5C 325.833,149.333 326.667,150.167 327.5,151C 333.672,149.44 340.005,148.773 346.5,149C 350.721,150.387 353.388,153.221 354.5,157.5 Z"/></g>
<g><path style="opacity:1" fill="#fef4ce" d="M 299.5,142.5 C 301.868,145.903 303.701,149.569 305,153.5C 318.017,147.617 328.017,150.95 335,163.5C 340.397,158.105 346.897,156.105 354.5,157.5C 355.962,158.458 357.295,159.624 358.5,161C 359.793,161.49 361.127,161.657 362.5,161.5C 366.999,165.836 369.332,171.169 369.5,177.5C 382.437,176.464 390.77,182.131 394.5,194.5C 404.45,190.37 412.95,192.37 420,200.5C 422.035,203.561 423.201,206.895 423.5,210.5C 437.482,211.15 444.149,218.483 443.5,232.5C 451.762,232.624 457.762,236.291 461.5,243.5C 355.665,243.167 249.999,243.501 144.5,244.5C 140.537,245.13 138.204,247.463 137.5,251.5C 132.5,251.5 127.5,251.5 122.5,251.5C 122.201,248.358 120.534,246.191 117.5,245C 101.503,244.5 85.5035,244.333 69.5,244.5C 71.9582,235.424 77.9582,231.59 87.5,233C 89.286,232.215 90.786,231.049 92,229.5C 91.1066,222.466 93.2733,216.633 98.5,212C 100.534,210.994 102.7,210.494 105,210.5C 109.377,212.03 113.877,212.53 118.5,212C 121.163,210.199 122.997,207.699 124,204.5C 130.014,198.426 136.514,197.926 143.5,203C 148.428,204.643 151.928,203.143 154,198.5C 154.3,185.208 161.134,179.375 174.5,181C 175.667,179.833 176.833,178.667 178,177.5C 178.346,170.962 181.513,166.462 187.5,164C 191.337,163.239 195.004,163.739 198.5,165.5C 204.268,163.661 207.435,159.661 208,153.5C 212.14,148.789 217.306,147.289 223.5,149C 226.747,152.399 230.414,153.066 234.5,151C 236.598,148.146 238.931,145.479 241.5,143C 243.702,141.978 246.035,141.478 248.5,141.5C 253.25,142.133 257.75,143.466 262,145.5C 265.233,145.3 268.067,144.133 270.5,142C 277.008,140.171 282.341,141.838 286.5,147C 292.534,149.902 296.867,148.402 299.5,142.5 Z"/></g>
<g><path style="opacity:1" fill="#fce99f" d="M 482.5,240.5 C 482.5,241.5 482.5,242.5 482.5,243.5C 475.5,243.5 468.5,243.5 461.5,243.5C 457.762,236.291 451.762,232.624 443.5,232.5C 444.149,218.483 437.482,211.15 423.5,210.5C 423.201,206.895 422.035,203.561 420,200.5C 412.95,192.37 404.45,190.37 394.5,194.5C 390.77,182.131 382.437,176.464 369.5,177.5C 369.332,171.169 366.999,165.836 362.5,161.5C 377.456,150.559 386.623,154.226 390,172.5C 390.833,173.333 391.667,174.167 392.5,175C 398.09,174.905 403.423,175.905 408.5,178C 411.421,182.017 413.754,186.351 415.5,191C 416.873,191.875 418.373,192.375 420,192.5C 426.298,189.757 432.465,189.923 438.5,193C 441.021,197.779 443.688,202.446 446.5,207C 459.131,207.968 464.965,214.802 464,227.5C 469.148,229.617 474.315,231.783 479.5,234C 481.219,235.87 482.219,238.037 482.5,240.5 Z"/></g>
<g><path style="opacity:1" fill="#dbd2af" d="M 482.5,240.5 C 483.434,241.568 483.768,242.901 483.5,244.5C 370.5,244.5 257.5,244.5 144.5,244.5C 249.999,243.501 355.665,243.167 461.5,243.5C 468.5,243.5 475.5,243.5 482.5,243.5C 482.5,242.5 482.5,241.5 482.5,240.5 Z"/></g>
<g><path style="opacity:1" fill="#fb9e34" d="M 122.5,251.5 C 127.5,251.5 132.5,251.5 137.5,251.5C 137.625,255.063 139.292,257.563 142.5,259C 252.499,259.5 362.499,259.667 472.5,259.5C 471.527,274.974 469.527,290.307 466.5,305.5C 472.833,305.5 479.167,305.5 485.5,305.5C 466.338,306.332 447.004,306.832 427.5,307C 424.778,308.272 423.444,310.439 423.5,313.5C 418.5,313.5 413.5,313.5 408.5,313.5C 408.256,310.737 406.923,308.571 404.5,307C 291.5,306.5 178.5,306.333 65.5,306.5C 62.0041,291.028 60.0041,275.362 59.5,259.5C 78.5029,259.667 97.5029,259.5 116.5,259C 120.518,258.137 122.518,255.637 122.5,251.5 Z"/></g>
<g><path style="opacity:1" fill="#f48719" d="M 472.5,259.5 C 478.833,259.5 485.167,259.5 491.5,259.5C 491.274,275.082 489.274,290.415 485.5,305.5C 479.167,305.5 472.833,305.5 466.5,305.5C 469.527,290.307 471.527,274.974 472.5,259.5 Z"/></g>
<g><path style="opacity:1" fill="#f0423a" d="M 408.5,313.5 C 413.5,313.5 418.5,313.5 423.5,313.5C 423.464,317.108 425.131,319.441 428.5,320.5C 439.326,321.33 450.326,321.83 461.5,322C 442.48,376.347 408.147,418.014 358.5,447C 321.998,447.167 285.664,447.667 249.5,448.5C 245.833,448.833 243.833,450.833 243.5,454.5C 237.949,456.129 232.616,455.795 227.5,453.5C 227.084,451.248 225.751,449.748 223.5,449C 210.167,448.667 196.833,448.333 183.5,448C 128.378,421.38 90.7113,379.214 70.5,321.5C 181.832,320.667 293.165,320.167 404.5,320C 406.734,318.362 408.067,316.195 408.5,313.5 Z"/></g>
<g><path style="opacity:1" fill="#d12d2d" d="M 428.5,320.5 C 445.833,320.5 463.167,320.5 480.5,320.5C 460.746,378.761 423.079,421.261 367.5,448C 328.168,448.5 288.835,448.667 249.5,448.5C 285.664,447.667 321.998,447.167 358.5,447C 408.147,418.014 442.48,376.347 461.5,322C 450.326,321.83 439.326,321.33 428.5,320.5 Z"/></g>
<g><path style="opacity:1" fill="#b22324" d="M 227.5,453.5 C 232.616,455.795 237.949,456.129 243.5,454.5C 243.245,458.493 244.911,461.326 248.5,463C 279.498,463.5 310.498,463.667 341.5,463.5C 341.666,473.172 341.5,482.839 341,492.5C 340.59,493.901 340.09,495.234 339.5,496.5C 291.166,496.667 242.832,496.5 194.5,496C 192.185,494.891 190.685,493.057 190,490.5C 189.5,481.506 189.334,472.506 189.5,463.5C 200.505,463.667 211.505,463.5 222.5,463C 226.875,461.299 228.542,458.133 227.5,453.5 Z"/></g>
<g><path style="opacity:1" fill="#9b1118" d="M 341.5,463.5 C 348.167,463.5 354.833,463.5 361.5,463.5C 361.949,473.605 361.449,483.605 360,493.5C 359.097,494.701 357.931,495.535 356.5,496C 350.843,496.499 345.176,496.666 339.5,496.5C 340.09,495.234 340.59,493.901 341,492.5C 341.5,482.839 341.666,473.172 341.5,463.5 Z"/></g>
</svg>
